<svg width="132" height="132" viewBox="0 0 132 132" fill="none" xmlns="http://www.w3.org/2000/svg">
<g id="Frame 192">
<g id="Group 39801">
<path id="Vector" d="M131.351 56.8284C136.417 92.921 111.265 126.286 75.1724 131.351C39.079 136.417 5.714 111.264 0.648648 75.1715C-4.4167 39.0789 20.736 5.714 56.8286 0.648635C92.9217 -4.41666 126.286 20.7359 131.351 56.8284Z" fill="#D3DDE9"/>
<path id="Vector_2" d="M123.567 57.8095C128.037 89.6569 105.843 119.098 73.9955 123.567C42.1477 128.037 12.7069 105.842 8.2374 73.9951C3.76779 42.1477 25.9621 12.707 57.8096 8.23737C89.6565 3.76792 119.099 25.9621 123.567 57.8095Z" fill="url(#paint0_radial_570_7689)"/>
<path id="Vector_3" fill-rule="evenodd" clip-rule="evenodd" d="M40.1003 30.0077C39.595 29.1196 38.4654 28.8094 37.5773 29.3147C33.58 31.5894 28.4769 36.1037 25.1259 41.0635C23.4474 43.548 22.1265 46.2634 21.6758 48.9641C21.2167 51.7161 21.6613 54.5061 23.5865 56.8797C24.733 58.2932 26.0706 59.223 27.6116 59.5421C29.1401 59.8587 30.6045 59.5196 31.9084 58.9071C34.4136 57.7306 36.8552 55.279 39.0244 52.978C39.4538 52.5226 39.8752 52.0701 40.2896 51.6249C42.0893 49.6923 43.7585 47.8997 45.378 46.6266C47.441 45.0052 48.6335 44.8495 49.4741 45.2901C51.1102 46.1478 51.7918 47.0566 52.0136 47.8218C52.2322 48.5759 52.1261 49.612 51.2734 50.9987C49.5145 53.859 45.0666 57.3684 37.7155 60.7697C29.8364 64.4152 22.4504 72.5159 20.7184 81.5066C19.8405 86.0631 20.4204 90.8553 23.1445 95.32C25.8547 99.7618 30.5906 103.724 37.7531 106.846C48.4602 111.512 61.6793 111.932 74.9901 105.082C88.2696 98.2474 101.484 84.2643 112.475 60.4109C112.903 59.4829 112.497 58.3839 111.569 57.9563C110.641 57.5286 109.543 57.9343 109.115 58.8623C98.3491 82.2238 85.6232 95.4478 73.2969 101.791C61.0008 108.119 48.9473 107.688 39.2316 103.453C32.5552 100.544 28.5121 97.0128 26.3034 93.3928C24.1085 89.7956 23.6293 85.9569 24.3517 82.2065C25.8204 74.583 32.2734 67.3647 39.2692 64.1279C46.7932 60.6467 52.077 56.7557 54.4253 52.937C55.6261 50.9842 56.1677 48.8611 55.5675 46.7915C54.9707 44.733 53.3675 43.1533 51.1922 42.0129C48.2215 40.4555 45.2975 41.9834 43.0914 43.7175C41.2221 45.1869 39.3004 47.2532 37.4944 49.1953C37.1009 49.6185 36.7129 50.0357 36.3321 50.4396C34.0797 52.8287 32.0994 54.7294 30.3355 55.558C29.5047 55.9481 28.8727 56.0246 28.362 55.9188C27.8638 55.8157 27.2196 55.485 26.4604 54.5488C25.3364 53.163 25.0028 51.5078 25.3256 49.5732C25.657 47.5875 26.6784 45.3751 28.192 43.1351C31.2251 38.6456 35.9057 34.5234 39.4074 32.5306C40.2955 32.0253 40.6057 30.8957 40.1003 30.0077Z" fill="url(#paint1_linear_570_7689)" stroke="#E8BE8A" stroke-width="0.492554" stroke-linecap="round"/>
<path id="Vector_4" fill-rule="evenodd" clip-rule="evenodd" d="M92.8846 24.6786C93.3893 23.7905 94.5201 23.4803 95.4082 23.9856C99.4044 26.2603 104.508 30.7746 107.859 35.7344C109.537 38.2189 110.859 40.9343 111.309 43.635C111.768 46.387 111.324 49.177 109.398 51.5506C108.252 52.9641 106.914 53.8939 105.374 54.213C103.845 54.5296 102.381 54.1905 101.077 53.578C98.5711 52.4015 96.129 49.9499 93.9606 47.6489C93.5314 47.1935 93.1096 46.741 92.6951 46.2958C90.8953 44.3632 89.2258 42.5706 87.6065 41.2975C85.5433 39.6761 84.3518 39.5204 83.5111 39.961C81.8741 40.8187 81.1933 41.7275 80.9713 42.4927C80.7522 43.2468 80.8588 44.2829 81.7113 45.6696C83.4697 48.5299 87.9189 52.0393 95.269 55.4406C103.149 59.0861 110.535 67.1868 112.267 76.1775C113.144 80.734 112.564 85.5262 109.841 89.9909C107.131 94.4327 102.394 98.3948 95.232 101.516C84.525 106.183 71.3054 106.603 57.9949 99.7525C44.7151 92.9183 31.5012 78.9352 20.5091 55.0818C20.0815 54.1538 20.4872 53.0548 21.4152 52.6272C22.3431 52.1995 23.4421 52.6052 23.8698 53.5332C34.6352 76.8947 47.3614 90.1187 59.6881 96.4624C71.9839 102.79 84.038 102.359 93.7534 98.1244C100.43 95.2146 104.472 91.6837 106.682 88.0637C108.876 84.4665 109.355 80.6278 108.633 76.8774C107.165 69.2539 100.711 62.0356 93.7149 58.7988C86.1916 55.3176 80.9076 51.4266 78.5602 47.6079C77.3583 45.6551 76.8166 43.532 77.4175 41.4624C78.014 39.4039 79.617 37.8242 81.7927 36.6838C84.7633 35.1264 87.6865 36.6543 89.8933 38.3884C91.7627 39.8578 93.6838 41.924 95.4911 43.8662C95.8833 44.2894 96.2725 44.7066 96.6529 45.1105C98.9056 47.4996 100.886 49.4003 102.649 50.2289C103.481 50.619 104.113 50.6955 104.623 50.5897C105.121 50.4866 105.766 50.1559 106.524 49.2197C107.649 47.8339 107.982 46.1787 107.659 44.2441C107.327 42.2584 106.306 40.046 104.793 37.806C101.759 33.3165 97.0792 29.1943 93.5773 27.2015C92.6892 26.6962 92.3784 25.5666 92.8846 24.6786Z" fill="url(#paint2_linear_570_7689)" stroke="#E8BE8A" stroke-width="0.492554" stroke-linecap="round"/>
<path id="Vector_5" fill-rule="evenodd" clip-rule="evenodd" d="M74.1494 68.1721C75.1574 68.3404 75.8382 69.2939 75.6695 70.3018C75.3039 72.4879 75.0967 75.1154 74.8673 78.0036C74.8332 78.4465 74.7977 78.8955 74.7607 79.3501C74.4884 82.7157 74.1583 86.3329 73.4849 89.6772C72.8158 93.002 71.7765 96.2337 69.9832 98.7416C68.1362 101.325 65.5047 103.108 61.8764 103.439C59.9788 103.613 58.1529 102.965 56.5512 102.028C54.9381 101.085 53.404 99.7633 52.0263 98.3489C49.2707 95.52 46.9311 92.1018 45.6132 89.8887C45.0906 89.0107 45.3785 87.8751 46.2565 87.3524C47.1345 86.8297 48.27 87.1176 48.7926 87.9956C50.0158 90.05 52.1863 93.2101 54.6769 95.767C55.9224 97.0457 57.1953 98.1186 58.419 98.8344C59.6542 99.5566 60.695 99.8318 61.5394 99.7545C63.9796 99.5313 65.6806 98.3971 66.9733 96.5894C68.3197 94.7064 69.2281 92.073 69.8571 88.9472C70.4823 85.8407 70.8002 82.4213 71.0721 79.0524C71.1078 78.6106 71.1427 78.1687 71.1775 77.7279C71.404 74.8615 71.626 72.0501 72.0196 69.692C72.1883 68.6842 73.1415 68.0036 74.1494 68.1721Z" fill="url(#paint3_linear_570_7689)" stroke="#E8BE8A" stroke-width="0.492554" stroke-linecap="round"/>
<path id="Vector_6" fill-rule="evenodd" clip-rule="evenodd" d="M52.9847 22.7336C53.9925 22.9019 54.673 23.8554 54.5046 24.8633C54.1395 27.0494 53.9314 29.6769 53.7027 32.5651C53.6676 33.008 53.6321 33.4571 53.5954 33.9116C53.3238 37.2772 52.9927 40.8944 52.3197 44.2387C51.6505 47.5636 50.6115 50.7952 48.8182 53.3031C46.9712 55.8861 44.3397 57.6691 40.7114 58.0009C38.8137 58.1745 36.9879 57.5267 35.3861 56.5899C33.7731 55.6468 32.239 54.3248 30.8613 52.9104C28.1057 50.0815 25.766 46.6634 24.4482 44.4502C23.9255 43.5722 24.2134 42.4366 25.0914 41.9139C25.9694 41.3913 27.105 41.6791 27.6276 42.5571C28.8507 44.6115 31.0213 47.7717 33.5119 50.3285C34.7574 51.6072 36.0303 52.6801 37.254 53.3959C38.4892 54.1182 39.53 54.3933 40.3744 54.3161C42.8146 54.0929 44.5155 52.9587 45.8083 51.1509C47.1547 49.2679 48.063 46.6345 48.6921 43.5087C49.3173 40.4023 49.6352 36.9828 49.9071 33.6139C49.9428 33.1721 49.9777 32.7302 50.0125 32.2894C50.2389 29.423 50.461 26.6116 50.855 24.2535C51.0232 23.2457 51.9767 22.5652 52.9847 22.7336Z" fill="url(#paint4_linear_570_7689)" stroke="#E8BE8A" stroke-width="0.492554" stroke-linecap="round"/>
<path id="Vector_7" fill-rule="evenodd" clip-rule="evenodd" d="M66.1575 61.6594C67.1653 61.8277 67.8459 62.7812 67.6774 63.7891C67.3123 65.9752 67.1042 68.6027 66.8755 71.4909C66.8405 71.9338 66.8049 72.3828 66.7682 72.8374C66.4966 76.203 66.1655 79.8202 65.4925 83.1645C64.8234 86.4893 63.7843 89.721 61.991 92.2289C60.144 94.8119 57.5126 96.5949 53.8842 96.9267C51.9866 97.1003 50.1607 96.4525 48.559 95.5157C46.946 94.5726 45.4118 93.2506 44.0342 91.8362C41.2785 89.0073 38.9389 85.5891 37.621 83.376C37.0984 82.498 37.3863 81.3624 38.2643 80.8397C39.1423 80.317 40.2778 80.6049 40.8004 81.4829C42.0236 83.5373 44.1941 86.6974 46.6847 89.2543C47.9302 90.533 49.2031 91.6059 50.4269 92.3217C51.662 93.0439 52.7028 93.3191 53.5472 93.2418C55.9875 93.0186 57.6884 91.8844 58.9811 90.0767C60.3276 88.1937 61.2359 85.5603 61.8649 82.4345C62.4901 79.328 62.8081 75.9086 63.08 72.5397C63.1156 72.0979 63.1506 71.656 63.1853 71.2152C63.4118 68.3488 63.6338 65.5374 64.0278 63.1793C64.1961 62.1715 65.1496 61.491 66.1575 61.6594Z" fill="url(#paint5_linear_570_7689)" stroke="#E8BE8A" stroke-width="0.492554" stroke-linecap="round"/>
<path id="Vector_8" fill-rule="evenodd" clip-rule="evenodd" d="M80.8573 23.7166C58.068 16.8306 40.4197 31.6742 26.406 44.6444C25.656 45.3386 24.4855 45.2933 23.7914 44.5433C23.0973 43.7935 23.1426 42.6229 23.8924 41.9289C37.7046 29.1453 56.8793 12.6059 81.9289 20.1746C92.6788 23.4228 98.8598 29.0536 103.58 36.1214C105.908 39.6097 107.878 43.4406 109.858 47.4348C110.181 48.0855 110.505 48.7407 110.829 49.4001C112.514 52.815 114.256 56.3469 116.307 59.992C116.809 60.8824 116.494 62.0105 115.603 62.5118C114.713 63.0131 113.584 62.6977 113.084 61.8074C110.977 58.0662 109.185 54.4306 107.501 51.0153C107.178 50.3614 106.86 49.7157 106.544 49.0788C104.566 45.089 102.687 41.448 100.501 38.1764C96.1926 31.7243 90.6807 26.6848 80.8573 23.7166Z" fill="url(#paint6_linear_570_7689)" stroke="#E8BE8A" stroke-width="0.492554" stroke-linecap="round"/>
<path id="Vector_9" fill-rule="evenodd" clip-rule="evenodd" d="M106.312 57.4714C103.112 55.9407 99.4188 55.7332 96.0383 57.9659C91.1095 61.2219 88.546 67.2115 87.6313 73.9642C86.721 80.681 87.5011 87.7807 88.882 92.7034C89.1588 93.6872 88.5845 94.7085 87.6002 94.9845C86.6174 95.2605 85.5962 94.6869 85.3194 93.703C83.8141 88.3386 82.9808 80.7288 83.9651 73.4673C84.9434 66.2418 87.7838 58.9844 93.9987 54.8785C98.6862 51.7828 103.798 52.1675 107.909 54.1335C111.948 56.0667 115.246 59.626 116.462 63.3178C116.782 64.2883 116.254 65.3343 115.284 65.654C114.313 65.9737 113.267 65.4462 112.947 64.4757C112.091 61.8771 109.58 59.0352 106.312 57.4714Z" fill="url(#paint7_linear_570_7689)" stroke="#E8BE8A" stroke-width="0.492554" stroke-linecap="round"/>
<path id="Vector_10" fill-rule="evenodd" clip-rule="evenodd" d="M98.6439 63.5832C99.7007 63.7518 100.414 64.7068 100.238 65.7162C99.8546 67.9056 99.6371 70.537 99.3973 73.4297C99.3603 73.8731 99.3233 74.323 99.2848 74.7781C98.9991 78.1489 98.6528 81.7714 97.9468 85.1207C97.2452 88.4506 96.1544 91.6871 94.2746 94.1989C92.3372 96.7858 89.5768 98.5714 85.7715 98.9037C83.7822 99.0776 81.8669 98.4287 80.187 97.4906C78.4953 96.546 76.8864 95.2221 75.4418 93.8056C72.5512 90.9724 70.0979 87.5491 68.7158 85.3325C68.1676 84.4532 68.4697 83.316 69.3904 82.7925C70.3112 82.269 71.5021 82.5575 72.0509 83.4367C73.3327 85.4941 75.6091 88.659 78.2215 91.2199C79.5284 92.5005 80.862 93.5749 82.1467 94.2917C83.4418 95.015 84.5326 95.2906 85.4192 95.2133C87.9783 94.9898 89.7618 93.8539 91.1176 92.0433C92.5296 90.1575 93.4828 87.5202 94.1414 84.3897C94.7971 81.2785 95.1316 77.8539 95.4158 74.48C95.4528 74.0374 95.4898 73.5949 95.5268 73.1535C95.7636 70.2827 95.9975 67.4671 96.4104 65.1055C96.5866 64.0962 97.5871 63.4146 98.6439 63.5832Z" fill="url(#paint8_linear_570_7689)" stroke="#E8BE8A" stroke-width="0.492554" stroke-linecap="round"/>
<path id="Vector_11" fill-rule="evenodd" clip-rule="evenodd" d="M89.2128 32.4071C92.2943 34.3206 94.254 37.2076 95.0459 38.5144C95.5757 39.3881 95.2975 40.5259 94.4227 41.0556C93.5495 41.5853 92.4113 41.3065 91.8814 40.4328C91.1932 39.2972 89.6006 37.004 87.2605 35.5504C85.0478 34.1761 82.1112 33.4956 78.2807 35.5532C77.4563 35.9957 76.3048 36.9834 74.9268 38.5652C73.577 40.1147 72.1058 42.1213 70.6271 44.4622C67.6686 49.1459 64.7423 55.0637 62.7113 61.1213C60.6715 67.2053 59.5868 73.2771 60.1569 78.3256C60.7188 83.3008 62.8504 87.1334 67.1875 89.2432C69.9649 90.5946 72.797 90.327 75.7942 88.8353C78.855 87.3126 81.9558 84.5663 84.9945 81.2074C88.0169 77.8665 90.869 74.0437 93.4681 70.4772C93.8218 69.9913 94.1726 69.5085 94.519 69.0313C96.6784 66.0589 98.6765 63.3078 100.371 61.4059C103.706 57.666 107.079 56.4413 110.035 56.6376C112.874 56.8262 114.996 58.3077 115.989 59.3841C116.682 60.1349 116.636 61.3054 115.884 61.9985C115.134 62.6915 113.963 62.6447 113.27 61.8939C112.783 61.3668 111.502 60.4434 109.789 60.3297C108.194 60.2237 105.868 60.7996 103.135 63.868C101.573 65.6194 99.7037 68.1911 97.5265 71.1886C97.1787 71.6677 96.822 72.1576 96.4579 72.6568C93.8559 76.2265 90.9045 80.1902 87.7386 83.6898C84.5889 87.1713 81.1181 90.3193 77.443 92.1481C73.7043 94.0081 69.6367 94.5497 65.5687 92.5706C59.8042 89.7663 57.144 84.6199 56.48 78.7408C55.8244 72.9349 57.0801 66.277 59.203 59.945C61.3348 53.5867 64.3936 47.4021 67.4988 42.4861C69.052 40.0274 70.6332 37.8598 72.1369 36.1344C73.611 34.4413 75.1148 33.0534 76.5298 32.2936C81.6539 29.5407 86.0054 30.4141 89.2128 32.4071Z" fill="url(#paint9_linear_570_7689)" stroke="#E8BE8A" stroke-width="0.492554" stroke-linecap="round"/>
<path id="Vector_12" fill-rule="evenodd" clip-rule="evenodd" d="M71.4513 27.9667C74.5324 29.8801 76.492 32.7672 77.2839 34.074C77.8138 34.9477 77.5355 36.0854 76.6608 36.6152C75.7875 37.1449 74.6493 36.866 74.1194 35.9923C73.4312 34.8568 71.8391 32.5635 69.4989 31.1099C67.2866 29.7357 64.3485 29.0551 60.5183 31.1128C59.6945 31.5553 58.5424 32.543 57.1643 34.1247C55.8143 35.6743 54.344 37.6808 52.8652 40.0218C49.9066 44.7055 46.9803 50.6232 44.9493 56.6808C42.9096 62.7649 41.8248 68.8367 42.3949 73.8852C42.9568 78.8604 45.0884 82.6929 49.4256 84.8028C52.203 86.1541 55.0347 85.8865 58.0325 84.3949C61.0926 82.8722 64.1936 80.1259 67.2321 76.7669C70.2542 73.4261 73.107 69.6033 75.7061 66.0368C76.0598 65.5509 76.4106 65.0681 76.757 64.5909C78.9165 61.6184 80.9146 58.8674 82.6093 56.9655C85.944 53.2255 89.3171 52.0009 92.2729 52.1972C95.1117 52.3857 97.2342 53.8673 98.2273 54.9436C98.92 55.6945 98.8741 56.865 98.1223 57.5581C97.3718 58.2511 96.2011 58.2043 95.5084 57.4534C95.0214 56.9264 93.7397 56.0029 92.0272 55.8893C90.4316 55.7833 88.1064 56.3592 85.3727 59.4276C83.8111 61.179 81.9418 63.7507 79.7645 66.7481C79.4167 67.2273 79.06 67.7172 78.6959 68.2164C76.0939 71.7861 73.1426 75.7498 69.9762 79.2493C66.8267 82.7308 63.3564 85.8788 59.6809 87.7077C55.9429 89.5677 51.8747 90.1093 47.8068 88.1302C42.0422 85.3259 39.382 80.1794 38.7181 74.3003C38.0624 68.4945 39.3181 61.8366 41.441 55.5046C43.5728 49.1462 46.6316 42.9617 49.7368 38.0457C51.2901 35.5869 52.8712 33.4193 54.3744 31.694C55.8495 30.0009 57.3524 28.613 58.7672 27.8531C63.8915 25.1003 68.2428 25.9737 71.4513 27.9667Z" fill="url(#paint10_linear_570_7689)" stroke="#E8BE8A" stroke-width="0.492554" stroke-linecap="round"/>
<path id="Vector_13" fill-rule="evenodd" clip-rule="evenodd" d="M56.6849 65.9514C57.6927 66.1197 58.3732 67.0731 58.2048 68.0811C57.8396 70.2672 57.6316 72.8947 57.4029 75.7829C57.3678 76.2258 57.3323 76.6748 57.2956 77.1294C57.024 80.495 56.6929 84.1122 56.0199 87.4564C55.3507 90.7813 54.3117 94.013 52.5184 96.5209C50.6714 99.1039 48.0399 100.887 44.4116 101.219C42.5139 101.392 40.6881 100.744 39.0863 99.8077C37.4733 98.8646 35.9392 97.5426 34.5615 96.1282C31.8058 93.2993 29.4662 89.8811 28.1484 87.6679C27.6257 86.79 27.9136 85.6544 28.7916 85.1317C29.6696 84.609 30.8051 84.8969 31.3278 85.7749C32.5509 87.8293 34.7215 90.9894 37.2121 93.5463C38.4576 94.825 39.7305 95.8979 40.9542 96.6137C42.1894 97.3359 43.2302 97.6111 44.0746 97.5338C46.5148 97.3106 48.2157 96.1764 49.5085 94.3686C50.8549 92.4857 51.7632 89.8523 52.3923 86.7265C53.0175 83.62 53.3354 80.2006 53.6073 76.8317C53.643 76.3899 53.6779 75.948 53.7127 75.5072C53.9391 72.6408 54.1611 69.8294 54.5552 67.4713C54.7234 66.4635 55.6769 65.7829 56.6849 65.9514Z" fill="url(#paint11_linear_570_7689)" stroke="#E8BE8A" stroke-width="0.492554" stroke-linecap="round"/>
<path id="Vector_14" fill-rule="evenodd" clip-rule="evenodd" d="M97.5354 52.0393C98.5434 52.2076 99.2242 53.161 99.0555 54.169C98.6899 56.3551 98.4827 58.9825 98.2533 61.8708C98.2192 62.3137 98.1837 62.7627 98.1467 63.2173C97.8743 66.5828 97.5443 70.2001 96.8708 73.5443C96.2018 76.8692 95.1628 80.1009 93.3689 82.6087C91.5218 85.1918 88.8901 86.9747 85.2624 87.3066C83.3649 87.4802 81.5385 86.8323 79.937 85.8956C78.3237 84.9525 76.7903 83.6305 75.4123 82.2161C72.6564 79.3872 70.3171 75.969 68.9992 73.7558C68.4766 72.8778 68.7644 71.7423 69.6424 71.2195C70.5204 70.6969 71.656 70.9848 72.1783 71.8628C73.4023 73.9172 75.5722 77.0773 78.0632 79.6342C79.308 80.9128 80.5808 81.9858 81.8049 82.7015C83.0408 83.4238 84.0813 83.699 84.9249 83.6217C87.3656 83.3985 89.0663 82.2643 90.3599 80.4565C91.7053 78.5736 92.6141 75.9402 93.2431 72.8144C93.8677 69.7079 94.1859 66.2885 94.4583 62.9196C94.4938 62.4778 94.5293 62.0358 94.5634 61.5951C94.7898 58.7287 95.0118 55.9173 95.4055 53.5592C95.5743 52.5514 96.5275 51.8708 97.5354 52.0393Z" fill="url(#paint12_linear_570_7689)" stroke="#E8BE8A" stroke-width="0.492554" stroke-linecap="round"/>
<path id="Vector_15" fill-rule="evenodd" clip-rule="evenodd" d="M70.2514 45.7274C67.1708 47.6409 65.2109 50.5279 64.4186 51.8347C63.8889 52.7084 64.1677 53.8462 65.0416 54.3759C65.9153 54.9056 67.053 54.6268 67.5828 53.7531C68.2712 52.6175 69.8636 50.3243 72.2033 48.8707C74.4161 47.4964 77.3541 46.8159 81.1846 48.8735C82.0075 49.316 83.1605 50.3037 84.5385 51.8855C85.8884 53.435 87.3581 55.4416 88.8367 57.7825C91.7954 62.4663 94.7216 68.384 96.7538 74.4416C98.7934 80.5257 99.8783 86.5975 99.307 91.6459C98.746 96.6211 96.6147 100.454 92.2765 102.564C89.4998 103.915 86.6684 103.647 83.6697 102.156C80.6103 100.633 77.5095 97.8866 74.4708 94.5277C71.4483 91.1868 68.5962 87.364 65.9964 83.7976C65.6422 83.3116 65.2916 82.8288 64.9449 82.3517C62.786 79.3792 60.7879 76.6281 59.0927 74.7262C55.7593 70.9863 52.3854 69.7617 49.4299 69.9579C46.5903 70.1465 44.4687 71.6281 43.4753 72.7044C42.7822 73.4552 42.8291 74.6257 43.5798 75.3188C44.3306 76.0118 45.5011 75.965 46.1942 75.2142C46.6808 74.6871 47.9636 73.7637 49.6752 73.65C51.2711 73.544 53.5956 74.1199 56.3304 77.1883C57.8916 78.9397 59.7601 81.5114 61.9382 84.5089C62.2864 84.988 62.6423 85.4779 63.0063 85.9771C65.6084 89.5468 68.5608 93.5105 71.7264 97.0101C74.8764 100.492 78.3458 103.64 82.0223 105.468C85.7596 107.328 89.8284 107.87 93.8957 105.891C99.6607 103.087 102.32 97.9402 102.985 92.0611C103.641 86.2553 102.384 79.5973 100.262 73.2653C98.1303 66.907 95.0709 60.7224 91.9657 55.8064C90.413 53.3477 88.8308 51.1801 87.3285 49.4547C85.8528 47.7616 84.3505 46.3738 82.9356 45.6139C77.8114 42.861 73.4599 43.7345 70.2514 45.7274Z" fill="url(#paint13_linear_570_7689)" stroke="#E8BE8A" stroke-width="0.492554" stroke-linecap="round"/>
<path id="Vector_16" fill-rule="evenodd" clip-rule="evenodd" d="M77.0697 67.7688C80.8248 71.0607 83.8693 76.0448 85.268 80.5861C85.57 81.5627 85.0223 82.5982 84.0455 82.8991C83.0686 83.2 82.034 82.6524 81.7321 81.6758C80.5169 77.7313 77.8261 73.3529 74.6305 70.5512C71.4023 67.7209 68.2315 66.9095 65.5233 68.5724C64.1921 69.3898 63.617 70.7308 63.6209 72.9684C63.6248 75.0568 64.1357 77.4994 64.7121 80.2539C64.7759 80.5591 64.8405 80.8681 64.9054 81.1808C65.5279 84.1837 66.1618 87.5166 65.8991 90.5505C65.6266 93.6982 64.3725 96.6718 61.174 98.6825C55.8896 102.004 49.5727 101.691 44.838 97.5899C40.1622 93.54 37.3383 86.0894 38.0658 75.6734C38.137 74.6542 39.0211 73.8856 40.0404 73.9568C41.0596 74.028 41.8282 74.9119 41.757 75.9312C41.0787 85.6445 43.762 91.7625 47.2606 94.7929C50.7004 97.7723 55.2255 98.0511 59.2048 95.5498C61.1863 94.3041 62.0136 92.5323 62.2126 90.2313C62.4218 87.8166 61.9178 84.9977 61.2821 81.932C61.2171 81.6182 61.1504 81.301 61.0833 80.9815C60.5225 78.3135 59.9253 75.4717 59.9207 72.975C59.9155 70.097 60.7001 67.1919 63.5872 65.4192C68.3536 62.4923 73.3473 64.5056 77.0697 67.7688Z" fill="url(#paint14_linear_570_7689)" stroke="#E8BE8A" stroke-width="0.492554" stroke-linecap="round"/>
<path id="Vector_17" fill-rule="evenodd" clip-rule="evenodd" d="M77.7486 34.9656C54.9594 28.0796 37.3111 42.9232 23.2973 55.8934C22.5474 56.5876 21.3769 56.5423 20.6827 55.7923C19.9887 55.0425 20.034 53.8719 20.7838 53.1779C34.596 40.3943 53.7707 23.855 78.8202 31.4236C89.5702 34.6718 95.7511 40.3027 100.471 47.3704C102.799 50.8587 104.769 54.6897 106.75 58.6838C107.072 59.3345 107.397 59.9897 107.721 60.6491C109.405 64.064 111.147 67.5959 113.199 71.241C113.7 72.1314 113.385 73.2595 112.494 73.7609C111.604 74.2622 110.475 73.9468 109.975 73.0565C107.869 69.3152 106.076 65.6797 104.392 62.2643C104.069 61.6104 103.751 60.9647 103.436 60.3278C101.457 56.338 99.5786 52.697 97.3925 49.4254C93.084 42.9734 87.5721 37.9338 77.7486 34.9656Z" fill="url(#paint15_linear_570_7689)" stroke="#E8BE8A" stroke-width="0.492554" stroke-linecap="round"/>
<path id="Vector_18" fill-rule="evenodd" clip-rule="evenodd" d="M77.7486 31.5613C54.9594 24.6753 37.3111 39.5189 23.2973 52.4891C22.5474 53.1833 21.3769 53.138 20.6827 52.388C19.9887 51.6382 20.034 50.4676 20.7838 49.7736C34.596 36.99 53.7707 20.4507 78.8202 28.0193C89.5702 31.2675 95.7511 36.8984 100.471 43.9661C102.799 47.4544 104.769 51.2854 106.75 55.2796C107.072 55.9302 107.397 56.5854 107.721 57.2448C109.405 60.6597 111.147 64.1917 113.199 67.8367C113.7 68.7271 113.385 69.8552 112.494 70.3566C111.604 70.8579 110.475 70.5425 109.975 69.6522C107.869 65.9109 106.076 62.2754 104.392 58.8601C104.069 58.2061 103.751 57.5604 103.436 56.9235C101.457 52.9337 99.5786 49.2927 97.3925 46.0211C93.084 39.5691 87.5721 34.5295 77.7486 31.5613Z" fill="url(#paint16_linear_570_7689)" stroke="#E8BE8A" stroke-width="0.492554" stroke-linecap="round"/>
<path id="Vector_19" fill-rule="evenodd" clip-rule="evenodd" d="M56.4968 54.0042C60.2515 57.296 63.2961 62.2801 64.6954 66.8215C64.9963 67.7981 64.4486 68.8335 63.4722 69.1344C62.4956 69.4353 61.4602 68.8877 61.1593 67.9111C59.9438 63.9667 57.253 59.5883 54.0574 56.7866C50.829 53.9562 47.6582 53.1448 44.9501 54.8077C43.6189 55.6252 43.0437 56.9661 43.0477 59.2037C43.0516 61.2922 43.5625 63.7348 44.1388 66.4892C44.2026 66.7944 44.2673 67.1035 44.3321 67.4162C44.9547 70.419 45.5886 73.7519 45.3259 76.7858C45.0534 79.9335 43.7993 82.9072 40.6008 84.9179C35.3164 88.2395 28.9995 87.9262 24.2648 83.8253C19.589 79.7753 16.7651 72.3248 17.4926 61.9088C17.5638 60.8896 18.4478 60.121 19.4672 60.1921C20.4864 60.2633 21.255 61.1473 21.1838 62.1666C20.5055 71.8799 23.1887 77.9979 26.6874 81.0282C30.1272 84.0076 34.6523 84.2865 38.6315 81.7851C40.6131 80.5395 41.4403 78.7677 41.6394 76.4667C41.8485 74.0519 41.3446 71.2331 40.7089 68.1674C40.6439 67.8536 40.5771 67.5364 40.5101 67.2168C39.9493 64.5488 39.352 61.707 39.3475 59.2104C39.3423 56.3324 40.1269 53.4272 43.014 51.6545C47.7803 48.7276 52.7748 50.741 56.4968 54.0042Z" fill="url(#paint17_linear_570_7689)" stroke="#E8BE8A" stroke-width="0.492554" stroke-linecap="round"/>
<path id="Vector_20" fill-rule="evenodd" clip-rule="evenodd" d="M60.7953 33.2958C63.8758 35.2092 65.8356 38.0963 66.6279 39.4031C67.1576 40.2768 66.8788 41.4145 66.0051 41.9443C65.1314 42.474 63.9936 42.1951 63.4637 41.3214C62.7753 40.1859 61.183 37.8926 58.8429 36.439C56.6306 35.0648 53.6925 34.3842 49.8623 36.4419C49.0385 36.8844 47.8864 37.8721 46.5083 39.4539C45.1583 41.0034 43.6879 43.0099 42.2092 45.3509C39.2506 50.0346 36.3243 55.9523 34.2933 62.0099C32.2536 68.094 31.1688 74.1658 31.7389 79.2143C32.3008 84.1895 34.4324 88.022 38.7696 90.1319C41.547 91.4832 44.3787 91.2156 47.3765 89.724C50.4366 88.2013 53.5376 85.455 56.5761 82.096C59.5982 78.7552 62.4503 74.9324 65.0503 71.3659C65.4044 70.88 65.7551 70.3972 66.1016 69.92C68.2606 66.9475 70.2586 64.1965 71.9539 62.2946C75.288 58.5546 78.6611 57.33 81.6169 57.5263C84.4557 57.7148 86.5782 59.1964 87.5713 60.2727C88.264 61.0236 88.2181 62.1941 87.4662 62.8872C86.7158 63.5802 85.5451 63.5334 84.8524 62.7825C84.3654 62.2555 83.0837 61.332 81.3712 61.2184C79.7756 61.1124 77.4504 61.6883 74.7167 64.7567C73.1551 66.5081 71.2864 69.0798 69.1084 72.0773C68.7603 72.5564 68.4043 73.0463 68.0404 73.5455C65.4382 77.1152 62.4858 81.0789 59.3202 84.5784C56.1707 88.0599 52.7004 91.2079 49.0249 93.0368C45.2869 94.8968 41.2187 95.4384 37.1508 93.4593C31.3862 90.655 28.726 85.5085 28.0621 79.6294C27.4064 73.8236 28.6621 67.1657 30.785 60.8337C32.9168 54.4754 35.9756 48.2908 39.0808 43.3748C40.6341 40.916 42.2152 38.7484 43.7184 37.0231C45.1935 35.33 46.6964 33.9421 48.1112 33.1822C53.2355 30.4294 57.5868 31.3028 60.7953 33.2958Z" fill="url(#paint18_linear_570_7689)" stroke="#E8BE8A" stroke-width="0.492554" stroke-linecap="round"/>
<path id="Vector_21" fill-rule="evenodd" clip-rule="evenodd" d="M60.4929 61.4046C64.2476 64.6964 67.2922 69.6805 68.6915 74.2219C68.9924 75.1985 68.4447 76.2339 67.4683 76.5348C66.4917 76.8357 65.4563 76.2881 65.1554 75.3115C63.9399 71.3671 61.2491 66.9887 58.0535 64.187C54.8251 61.3566 51.6543 60.5452 48.9462 62.2081C47.615 63.0256 47.0398 64.3665 47.0438 66.6041C47.0477 68.6925 47.5586 71.1351 48.1349 73.8896C48.1987 74.1948 48.2634 74.5038 48.3282 74.8166C48.9508 77.8194 49.5847 81.1523 49.322 84.1862C49.0495 87.3339 47.7954 90.3076 44.5969 92.3183C39.3125 95.6399 32.9956 95.3266 28.2609 91.2257C23.5851 87.1757 20.7612 79.7252 21.4887 69.3092C21.5599 68.29 22.4439 67.5213 23.4633 67.5925C24.4825 67.6637 25.2511 68.5476 25.1799 69.567C24.5015 79.2803 27.1848 85.3983 30.6835 88.4286C34.1233 91.408 38.6484 91.6869 42.6276 89.1855C44.6092 87.9399 45.4364 86.168 45.6355 83.8671C45.8446 81.4523 45.3407 78.6335 44.7049 75.5677C44.64 75.254 44.5732 74.9368 44.5062 74.6172C43.9454 71.9492 43.3481 69.1074 43.3435 66.6108C43.3384 63.7327 44.123 60.8276 47.0101 59.0549C51.7764 56.128 56.7709 58.1414 60.4929 61.4046Z" fill="url(#paint19_linear_570_7689)" stroke="#E8BE8A" stroke-width="0.492554" stroke-linecap="round"/>
<path id="Vector_22" fill-rule="evenodd" clip-rule="evenodd" d="M96.311 45.4192C100.066 48.7111 103.111 53.6952 104.509 58.2365C104.811 59.2131 104.264 60.2486 103.287 60.5495C102.31 60.8504 101.275 60.3028 100.973 59.3262C99.7581 55.3817 97.0673 51.0033 93.8718 48.2016C90.6437 45.3712 87.4733 44.5599 84.7647 46.2227C83.4341 47.0402 82.8583 48.3812 82.8628 50.6188C82.8657 52.7072 83.3764 55.1498 83.9536 57.9043C84.0172 58.2095 84.0823 58.5185 84.146 58.8312C84.7691 61.8341 85.4026 65.1669 85.1406 68.2008C84.8683 71.3486 83.6132 74.3222 80.4147 76.3329C75.1307 79.6546 68.8139 79.3412 64.0792 75.2403C59.4034 71.1903 56.5795 63.7398 57.307 53.3238C57.3782 52.3046 58.2623 51.536 59.2816 51.6072C60.3008 51.6784 61.0694 52.5623 60.9982 53.5816C60.3199 63.2949 63.0032 69.4129 66.5019 72.4433C69.9416 75.4227 74.4661 75.7015 78.4461 73.2002C80.428 71.9545 81.2554 70.1827 81.4537 67.8817C81.6624 65.467 81.1592 62.6481 80.5227 59.5824C80.4576 59.2686 80.391 58.9514 80.3244 58.6319C79.7634 55.9639 79.1669 53.1221 79.1625 50.6254C79.1566 47.7474 79.941 44.8423 82.8287 43.0695C87.5946 40.1427 92.5885 42.156 96.311 45.4192Z" fill="url(#paint20_linear_570_7689)" stroke="#E8BE8A" stroke-width="0.492554" stroke-linecap="round"/>
<path id="Vector_23" fill-rule="evenodd" clip-rule="evenodd" d="M86.4992 43.8906C84.7956 45.4034 83.0461 46.9556 81.3158 48.3583C77.0665 51.8047 72.5004 54.0892 68.4974 55.1512C66.4966 55.6821 64.5929 55.9189 62.9129 55.8163C61.2542 55.7149 59.6765 55.2733 58.4666 54.2986C57.7266 53.7025 57.5641 52.5563 58.1036 51.7385C58.6431 50.9208 59.6802 50.7411 60.4202 51.3373C60.9237 51.743 61.7927 52.0775 63.0959 52.1571C64.3776 52.2354 65.9508 52.0579 67.7232 51.5877C71.267 50.6474 75.4339 48.5831 79.3547 45.4036C81.0287 44.0463 82.6746 42.5849 84.3427 41.1034C85.1937 40.3475 86.0522 39.5865 86.921 38.8313C89.446 36.6395 92.0377 34.5346 94.6294 33.0689C97.2195 31.6036 99.9651 30.6864 102.761 31.0926C105.606 31.5062 108.226 33.2477 110.607 36.491C115.098 42.6078 116.585 49.1911 115.968 55.6001C115.355 61.9556 112.688 68.0252 109.051 73.2649C105.409 78.5111 100.733 83.0155 95.9629 86.2495C91.2192 89.465 86.2372 91.522 81.9774 91.6635C74.6065 91.9082 70.1864 89.4244 67.68 85.8743C65.2446 82.4249 64.882 79.8111 64.882 77.3859C64.882 76.374 65.6244 75.5536 66.5401 75.5536C67.4559 75.5536 68.1982 76.374 68.1982 77.3859C68.1982 79.5051 68.5338 81.1263 70.2944 83.6199C71.984 86.013 75.2578 88.2201 81.8768 88.0004C85.3447 87.8853 89.7554 86.1586 94.2282 83.1257C98.6745 80.1114 103.041 75.9029 106.42 71.0342C109.805 66.1592 112.14 60.7122 112.67 55.2122C113.196 49.7655 111.963 44.1545 108.032 38.8002C106.05 36.1006 104.14 34.9896 102.329 34.7261C100.467 34.4556 98.4273 35.0373 96.1405 36.3312C93.8523 37.6248 91.4738 39.5399 88.9694 41.7132C88.1628 42.4146 87.3354 43.1479 86.4992 43.8906Z" fill="url(#paint21_linear_570_7689)" stroke="#E8BE8A" stroke-width="0.492554" stroke-linecap="round"/>
<path id="Vector_24" fill-rule="evenodd" clip-rule="evenodd" d="M72.2699 26.3894C69.0704 24.8587 65.3771 24.6512 61.997 26.8839C57.0678 30.1398 54.5049 36.1295 53.5897 42.8821C52.6793 49.599 53.4592 56.6987 54.8404 61.6213C55.1164 62.6052 54.5428 63.6264 53.5589 63.9025C52.5751 64.1785 51.5538 63.6048 51.2778 62.621C49.7725 57.2565 48.9388 49.6468 49.9229 42.3853C50.9021 35.1597 53.7416 27.9024 59.9576 23.7964C64.644 20.7008 69.7573 21.0855 73.867 23.0515C77.9062 24.9847 81.2038 28.544 82.4205 32.2358C82.7402 33.2063 82.2118 34.2523 81.2423 34.572C80.2714 34.8917 79.2249 34.3642 78.9052 33.3937C78.0497 30.7951 75.538 27.9531 72.2699 26.3894Z" fill="url(#paint22_linear_570_7689)" stroke="#E8BE8A" stroke-width="0.492554" stroke-linecap="round"/>
<path id="Vector_25" fill-rule="evenodd" clip-rule="evenodd" d="M46.7347 28.7069C49.8152 30.6204 51.775 33.5074 52.5673 34.8142C53.0971 35.6879 52.8182 36.8257 51.9445 37.3554C51.0708 37.8851 49.9331 37.6063 49.4032 36.7326C48.7148 35.597 47.1225 33.3038 44.7823 31.8502C42.57 30.4759 39.632 29.7954 35.8018 31.853C34.978 32.2955 33.8259 33.2832 32.4477 34.865C31.0977 36.4145 29.6274 38.4211 28.1486 40.762C25.1901 45.4458 22.2637 51.3635 20.2328 57.4211C18.193 63.5051 17.1083 69.577 17.6784 74.6254C18.2402 79.6006 20.3719 83.4332 24.709 85.5431C27.4864 86.8944 30.3182 86.6268 33.316 85.1351C36.3761 83.6124 39.477 80.8661 42.5155 77.5072C45.5376 74.1663 48.3898 70.3435 50.9897 66.7771C51.3439 66.2911 51.6945 65.8083 52.041 65.3311C54.2001 62.3587 56.198 59.6076 57.8933 57.7057C61.2268 53.9658 64.6007 52.7411 67.556 52.9374C70.3958 53.126 72.5176 54.6075 73.5108 55.6839C74.2035 56.4347 74.1576 57.6052 73.4057 58.2983C72.6553 58.9913 71.4848 58.9445 70.7918 58.1937C70.3052 57.6666 69.0225 56.7432 67.3109 56.6295C65.7149 56.5235 63.3904 57.0994 60.6555 60.1678C59.0944 61.9192 57.2258 64.4909 55.0479 67.4884C54.6997 67.9675 54.3438 68.4574 53.9798 68.9566C51.3776 72.5263 48.4253 76.49 45.2596 79.9896C42.1101 83.4711 38.6399 86.6191 34.9644 88.4479C31.2264 90.3079 27.1581 90.8495 23.0902 88.8704C17.3257 86.0661 14.6655 80.9197 14.0015 75.0406C13.3458 69.2348 14.6016 62.5768 16.7245 56.2448C18.8563 49.8865 21.915 43.7019 25.0203 38.7859C26.5735 36.3272 28.1547 34.1596 29.6579 32.4342C31.133 30.7411 32.6359 29.3533 34.0507 28.5934C39.1749 25.8405 43.5263 26.7139 46.7347 28.7069Z" fill="url(#paint23_linear_570_7689)" stroke="#E8BE8A" stroke-width="0.492554" stroke-linecap="round"/>
<path id="Vector_26" fill-rule="evenodd" clip-rule="evenodd" d="M47.9453 29.4149C47.4399 28.5268 46.3103 28.2166 45.4223 28.7219C41.425 30.9967 36.3219 35.511 32.9709 40.4708C31.2923 42.9553 29.9715 45.6706 29.5208 48.3714C29.0617 51.1233 29.5063 53.9133 31.4315 56.2869C32.578 57.7004 33.9155 58.6302 35.4566 58.9493C36.9851 59.2659 38.4495 58.9268 39.7533 58.3144C42.2586 57.1378 44.7001 54.6862 46.8694 52.3852C47.2987 51.9298 47.7201 51.4774 48.1346 51.0321C49.9342 49.0996 51.6035 47.3069 53.223 46.0339C55.286 44.4124 56.4785 44.2567 57.319 44.6973C58.9551 45.555 59.6367 46.4638 59.8586 47.229C60.0772 47.9831 59.9711 49.0192 59.1184 50.4059C57.3594 53.2662 52.9116 56.7757 45.5605 60.1769C37.6813 63.8224 30.2953 71.9231 28.5633 80.9138C27.6855 85.4703 28.2654 90.2625 30.9895 94.7272C33.6997 99.169 38.4356 103.131 45.5981 106.253C56.3052 110.919 69.5243 111.339 82.8351 104.489C96.1146 97.6546 109.329 83.6715 120.32 59.8181C120.748 58.8901 120.342 57.7911 119.414 57.3635C118.486 56.9358 117.388 57.3415 116.96 58.2695C106.194 81.6311 93.4682 94.855 81.1419 101.199C68.8458 107.527 56.7923 107.095 47.0766 102.861C40.4001 99.951 36.3571 96.42 34.1483 92.8C31.9535 89.2028 31.4742 85.3642 32.1967 81.6137C33.6654 73.9902 40.1183 66.7719 47.1142 63.5351C54.6381 60.0539 59.9219 56.1629 62.2703 52.3442C63.4711 50.3914 64.0126 48.2684 63.4125 46.1987C62.8157 44.1402 61.2124 42.5605 59.0371 41.4201C56.0664 39.8627 53.1425 41.3906 50.9364 43.1247C49.067 44.5942 47.1454 46.6604 45.3394 48.6026C44.9458 49.0257 44.5579 49.443 44.1771 49.8469C41.9246 52.2359 39.9444 54.1366 38.1804 54.9652C37.3496 55.3554 36.7176 55.4319 36.207 55.326C35.7088 55.2229 35.0645 54.8922 34.3054 53.9561C33.1814 52.5703 32.8478 50.9151 33.1706 48.9804C33.502 46.9947 34.5234 44.7823 36.0369 42.5423C39.0701 38.0529 43.7506 33.9307 47.2524 31.9379C48.1405 31.4326 48.4507 30.3029 47.9453 29.4149Z" fill="url(#paint24_linear_570_7689)" stroke="#E8BE8A" stroke-width="0.492554" stroke-linecap="round"/>
<path id="Vector_27" fill-rule="evenodd" clip-rule="evenodd" d="M98.348 68.467C99.4048 68.6356 100.118 69.5906 99.9421 70.6C99.5587 72.7893 99.3412 75.4208 99.1014 78.3135C99.0644 78.7569 99.0274 79.2067 98.9889 79.6619C98.7032 83.0326 98.3569 86.6552 97.6509 90.0045C96.9493 93.3344 95.8585 96.5709 93.9787 99.0827C92.0413 101.67 89.2809 103.455 85.4756 103.787C83.4863 103.961 81.571 103.312 79.8911 102.374C78.1994 101.43 76.5905 100.106 75.1459 98.6894C72.2553 95.8562 69.802 92.4329 68.4199 90.2163C67.8717 89.337 68.1738 88.1998 69.0945 87.6763C70.0153 87.1528 71.2062 87.4413 71.7544 88.3204C73.0368 90.3779 75.3132 93.5428 77.9256 96.1037C79.2325 97.3843 80.5661 98.4587 81.8508 99.1755C83.1459 99.8988 84.2367 100.174 85.1233 100.097C87.6824 99.8736 89.4659 98.7377 90.8217 96.9271C92.2337 95.0413 93.1869 92.404 93.8455 89.2735C94.5012 86.1623 94.8357 82.7377 95.1199 79.3638C95.1569 78.9212 95.1939 78.4787 95.2309 78.0373C95.4677 75.1665 95.7016 72.3509 96.1145 69.9893C96.2907 68.98 97.2912 68.2984 98.348 68.467Z" fill="url(#paint25_linear_570_7689)" stroke="#E8BE8A" stroke-width="0.492554" stroke-linecap="round"/>
<path id="Vector_28" fill-rule="evenodd" clip-rule="evenodd" d="M73.3759 38.6229C76.4574 40.5364 78.4171 43.4235 79.2089 44.7302C79.7388 45.6039 79.4606 46.7417 78.5858 47.2714C77.7126 47.8011 76.5744 47.5223 76.0445 46.6486C75.3562 45.5131 73.7637 43.2198 71.4239 41.7662C69.2116 40.3919 66.2736 39.7114 62.4434 41.769C61.6196 42.2116 60.4675 43.1992 59.0893 44.781C57.7393 46.3305 56.269 48.3371 54.7902 50.678C51.8317 55.3618 48.9054 61.2795 46.8744 67.3371C44.8346 73.4212 43.7499 79.493 44.32 84.5414C44.8818 89.5166 47.0135 93.3492 51.3506 95.4591C54.128 96.8104 56.9598 96.5428 59.9576 95.0511C63.0177 93.5284 66.1186 90.7821 69.1571 87.4232C72.18 84.0823 75.0321 80.2595 77.6312 76.6931C77.9849 76.2072 78.3357 75.7243 78.682 75.2472C80.8415 72.2747 82.8396 69.5236 84.5344 67.6217C87.869 63.8818 91.2422 62.6572 94.1979 62.8534C97.0368 63.042 99.1592 64.5236 100.152 65.5999C100.845 66.3507 100.799 67.5212 100.047 68.2143C99.2969 68.9073 98.1261 68.8605 97.4334 68.1097C96.9465 67.5826 95.6647 66.6592 93.9522 66.5455C92.3567 66.4396 90.0315 67.0155 87.2977 70.0838C85.7362 71.8352 83.8668 74.4069 81.6896 77.4044C81.3418 77.8835 80.9851 78.3734 80.621 78.8727C78.019 82.4424 75.0676 86.4061 71.9012 89.9056C68.7517 93.3871 65.2815 96.5351 61.606 98.3639C57.868 100.224 53.7997 100.766 49.7318 98.7865C43.9673 95.9821 41.3071 90.8357 40.6431 84.9566C39.9874 79.1508 41.2432 72.4929 43.3661 66.1609C45.4979 59.8025 48.5566 53.6179 51.6619 48.7019C53.2151 46.2432 54.7963 44.0756 56.2995 42.3502C57.7746 40.6572 59.2775 39.2693 60.6923 38.5094C65.8165 35.7566 70.1679 36.63 73.3759 38.6229Z" fill="url(#paint26_linear_570_7689)" stroke="#E8BE8A" stroke-width="0.492554" stroke-linecap="round"/>
<path id="Vector_29" fill-rule="evenodd" clip-rule="evenodd" d="M91.4051 31.4881C91.9098 30.6001 93.0406 30.2898 93.9287 30.7951C97.9249 33.0699 103.028 37.5842 106.379 42.544C108.058 45.0285 109.379 47.7439 109.829 50.4446C110.288 53.1966 109.844 55.9865 107.919 58.3602C106.773 59.7737 105.435 60.7035 103.894 61.0226C102.365 61.3392 100.901 61.0001 99.5975 60.3876C97.0916 59.2111 94.6495 56.7594 92.4811 54.4585C92.0519 54.0031 91.6301 53.5506 91.2156 53.1054C89.4158 51.1728 87.7463 49.3801 86.1271 48.1071C84.0638 46.4856 82.8723 46.3299 82.0316 46.7706C80.3946 47.6283 79.7138 48.5371 79.4918 49.3023C79.2727 50.0564 79.3793 51.0924 80.2318 52.4792C81.9902 55.3394 86.4394 58.8489 93.7895 62.2502C101.67 65.8956 109.055 73.9963 110.787 82.987C111.665 87.5435 111.085 92.3358 108.361 96.8005C105.651 101.242 100.915 105.204 93.7525 108.326C83.0455 112.992 69.826 113.412 56.5154 106.562C43.2356 99.7278 30.0217 85.7448 19.0296 61.8914C18.602 60.9634 19.0077 59.8644 19.9357 59.4368C20.8636 59.009 21.9626 59.4147 22.3903 60.3428C33.1557 83.7043 45.8819 96.9282 58.2086 103.272C70.5044 109.6 82.5585 109.168 92.2739 104.934C98.9507 102.024 102.993 98.4933 105.203 94.8733C107.396 91.276 107.876 87.4374 107.153 83.687C105.685 76.0635 99.2319 68.8452 92.2354 65.6083C84.7121 62.1272 79.4281 58.2361 77.0807 54.4175C75.8788 52.4646 75.3371 50.3416 75.938 48.272C76.5345 46.2135 78.1375 44.6338 80.3132 43.4933C83.2838 41.936 86.207 43.4639 88.4138 45.198C90.2832 46.6674 92.2044 48.7336 94.0116 50.6758C94.4038 51.099 94.793 51.5162 95.1734 51.9201C97.4261 54.3091 99.4065 56.2099 101.169 57.0384C102.001 57.4286 102.633 57.5051 103.144 57.3993C103.641 57.2961 104.286 56.9655 105.044 56.0293C106.169 54.6435 106.502 52.9883 106.179 51.0537C105.848 49.068 104.827 46.8555 103.314 44.6155C100.28 40.1261 95.5997 36.0039 92.0978 34.0111C91.2097 33.5058 90.8989 32.3762 91.4051 31.4881Z" fill="url(#paint27_linear_570_7689)" stroke="#E8BE8A" stroke-width="0.492554" stroke-linecap="round"/>
<path id="Vector_30" fill-rule="evenodd" clip-rule="evenodd" d="M70.8793 41.7948C68.9775 43.3222 67.0263 44.8893 65.0963 46.3056C60.3539 49.7853 55.2589 52.0919 50.7926 53.1643C48.5601 53.7002 46.436 53.9394 44.5613 53.8358C42.7106 53.7335 40.9502 53.2876 39.6002 52.3034C38.7746 51.7015 38.5931 50.5442 39.1951 49.7184C39.797 48.8928 40.9543 48.7114 41.7801 49.3133C42.3419 49.723 43.3115 50.0608 44.7656 50.1412C46.1957 50.2202 47.9511 50.0411 49.9288 49.5663C53.883 48.617 58.5322 46.5325 62.9072 43.3224C64.7749 41.9518 66.6114 40.4763 68.4734 38.9805C69.4233 38.2174 70.3798 37.4489 71.3504 36.6865C74.1669 34.4733 77.059 32.348 79.9511 30.8682C82.8418 29.3886 85.9056 28.4626 89.0242 28.8729C92.1975 29.2903 95.1207 31.0487 97.779 34.3235C102.791 40.4994 104.45 47.1465 103.762 53.6175C103.078 60.0346 100.101 66.1628 96.0428 71.4534C91.9785 76.7502 86.7626 81.2982 81.4387 84.5636C76.1458 87.8102 70.5868 89.8872 65.8333 90.0301C57.6086 90.2771 52.6773 87.7692 49.8805 84.1847C47.1632 80.702 46.7585 76.5684 46.7585 74.1198C46.7585 73.0981 47.5868 72.2696 48.6087 72.2696C49.6304 72.2696 50.4588 73.0981 50.4588 74.1198C50.4588 76.2595 50.8333 79.3907 52.7978 81.9086C54.683 84.3247 58.3362 86.5533 65.7223 86.3314C69.5904 86.2153 74.5118 84.4719 79.5042 81.4095C84.4655 78.3662 89.335 74.1168 93.1078 69.201C96.8835 64.2789 99.49 58.7792 100.082 53.2258C100.667 47.7265 99.2916 42.061 94.9046 36.6551C92.6933 33.9292 90.5635 32.8075 88.5417 32.5415C86.4651 32.2684 84.1887 32.8557 81.637 34.162C79.0853 35.4682 76.43 37.4018 73.6356 39.5962C72.7342 40.3044 71.813 41.0448 70.8793 41.7948Z" fill="url(#paint28_linear_570_7689)" stroke="#E8BE8A" stroke-width="0.492554" stroke-linecap="round"/>
<path id="Vector_31" fill-rule="evenodd" clip-rule="evenodd" d="M55.6922 48.2947C52.4932 46.764 48.8 46.5565 45.4198 48.7892C40.4907 52.0451 37.9277 58.0348 37.0126 64.7874C36.1022 71.5042 36.882 78.604 38.2633 83.5266C38.5393 84.5104 37.9656 85.5317 36.9818 85.8077C35.998 86.0838 34.9767 85.5101 34.7006 84.5263C33.1954 79.1618 32.3616 71.552 33.3458 64.2905C34.325 57.065 37.1644 49.8076 43.3804 45.7017C48.0669 42.6061 53.1802 42.9908 57.2892 44.9568C61.3293 46.8899 64.6267 50.4493 65.843 54.1411C66.1627 55.1116 65.6352 56.1576 64.6647 56.4773C63.6942 56.797 62.6482 56.2694 62.3285 55.2989C61.4724 52.7003 58.9603 49.8584 55.6922 48.2947Z" fill="url(#paint29_linear_570_7689)" stroke="#E8BE8A" stroke-width="0.492554" stroke-linecap="round"/>
<path id="Vector_32" fill-rule="evenodd" clip-rule="evenodd" d="M56.7283 71.532C53.5294 70.0013 49.8361 69.7938 46.456 72.0265C41.5268 75.2824 38.9638 81.2721 38.0487 88.0247C37.1383 94.7415 37.9182 101.841 39.2994 106.764C39.5754 107.748 39.0017 108.769 38.0179 109.045C37.0341 109.321 36.0128 108.747 35.7368 107.764C34.2315 102.399 33.3978 94.7893 34.3819 87.5278C35.3611 80.3023 38.2006 73.0449 44.4165 68.939C49.103 65.8434 54.2163 66.2281 58.3254 68.1941C62.3654 70.1272 65.6628 73.6866 66.8792 77.3784C67.1989 78.3489 66.6714 79.3949 65.7008 79.7146C64.7303 80.0343 63.6844 79.5068 63.3647 78.5363C62.5086 75.9376 59.9964 73.0957 56.7283 71.532Z" fill="url(#paint30_linear_570_7689)" stroke="#E8BE8A" stroke-width="0.492554" stroke-linecap="round"/>
<path id="Vector_33" fill-rule="evenodd" clip-rule="evenodd" d="M74.0736 47.7463C75.1304 47.9149 75.8438 48.8699 75.6676 49.8793C75.2843 52.0686 75.0667 54.7001 74.827 57.5928C74.79 58.0362 74.753 58.486 74.7145 58.9412C74.4288 62.3119 74.0825 65.9345 73.3765 69.2838C72.6749 72.6137 71.5846 75.8502 69.7037 78.362C67.7667 80.9489 65.0069 82.7345 61.2017 83.0667C59.2114 83.2407 57.2966 82.5918 55.6169 81.6537C53.9251 80.7091 52.3161 79.3852 50.8714 77.9687C47.9813 75.1355 45.5276 71.7122 44.1455 69.4956C43.5973 68.6163 43.8994 67.4791 44.8201 66.9556C45.7409 66.4321 46.9318 66.7206 47.48 67.5997C48.7627 69.6572 51.0392 72.8221 53.6511 75.383C54.9573 76.6636 56.2922 77.738 57.5758 78.4548C58.8712 79.1781 59.9626 79.4537 60.8483 79.3764C63.4075 79.1529 65.1913 78.017 66.5471 76.2064C67.9593 74.3206 68.9119 71.6833 69.5716 68.5528C70.2272 65.4416 70.5607 62.017 70.8458 58.6431C70.8832 58.2005 70.9198 57.758 70.9563 57.3166C71.1938 54.4458 71.4267 51.6302 71.8398 49.2686C72.0162 48.2593 73.0168 47.5777 74.0736 47.7463Z" fill="url(#paint31_linear_570_7689)" stroke="#E8BE8A" stroke-width="0.492554" stroke-linecap="round"/>
<path id="Vector_34" d="M103.224 70.7239C103.224 91.1018 88.922 99.8206 66.1922 99.8206C42.2181 99.8206 28.3311 89.4637 28.3311 69.0857C28.3311 48.7079 46.1857 32.0322 64.1195 32.0322C82.0528 32.0322 103.224 50.3459 103.224 70.7239Z" fill="url(#paint32_radial_570_7689)"/>
<path id="Vector_35" fill-rule="evenodd" clip-rule="evenodd" d="M62.374 40.0244C63.0279 40.0244 63.5581 39.4942 63.5581 38.8403C63.5581 38.1864 63.0279 37.6562 62.374 37.6562C61.7201 37.6562 61.1899 38.1864 61.1899 38.8403C61.1899 39.4942 61.7201 40.0244 62.374 40.0244ZM71.4026 44.4647C72.0568 44.4647 72.5867 43.9345 72.5867 43.2806C72.5867 42.6267 72.0568 42.0965 71.4026 42.0965C70.7487 42.0965 70.2185 42.6267 70.2185 43.2806C70.2185 43.9345 70.7487 44.4647 71.4026 44.4647ZM54.5295 49.497C55.1834 49.497 55.7135 48.9669 55.7135 48.3129C55.7135 47.659 55.1834 47.1289 54.5295 47.1289C53.8756 47.1289 53.3454 47.659 53.3454 48.3129C53.3454 48.9669 53.8756 49.497 54.5295 49.497ZM52.6053 53.6413C53.2592 53.6413 53.7894 53.1111 53.7894 52.4572C53.7894 51.8033 53.2592 51.2731 52.6053 51.2731C51.9514 51.2731 51.4213 51.8033 51.4213 52.4572C51.4213 53.1111 51.9514 53.6413 52.6053 53.6413ZM67.2583 58.8216C67.2583 59.4755 66.7282 60.0057 66.0743 60.0057C65.4204 60.0057 64.8902 59.4755 64.8902 58.8216C64.8902 58.1677 65.4204 57.6376 66.0743 57.6376C66.7282 57.6376 67.2583 58.1677 67.2583 58.8216ZM48.313 77.7669C48.9669 77.7669 49.4971 77.2367 49.4971 76.5828C49.4971 75.9289 48.9669 75.3987 48.313 75.3987C47.6591 75.3987 47.129 75.9289 47.129 76.5828C47.129 77.2367 47.6591 77.7669 48.313 77.7669ZM64.8902 74.0666C64.8902 74.7205 64.36 75.2507 63.7061 75.2507C63.0522 75.2507 62.522 74.7205 62.522 74.0666C62.522 73.4127 63.0522 72.8826 63.7061 72.8826C64.36 72.8826 64.8902 73.4127 64.8902 74.0666ZM82.5034 77.6189C83.1576 77.6189 83.6875 77.0887 83.6875 76.4348C83.6875 75.7809 83.1576 75.2507 82.5034 75.2507C81.8492 75.2507 81.3193 75.7809 81.3193 76.4348C81.3193 77.0887 81.8492 77.6189 82.5034 77.6189ZM91.828 65.186C91.828 65.84 91.2982 66.3701 90.6439 66.3701C89.9897 66.3701 89.4599 65.84 89.4599 65.186C89.4599 64.5321 89.9897 64.002 90.6439 64.002C91.2982 64.002 91.828 64.5321 91.828 65.186ZM57.1937 88.1275C57.1937 88.7815 56.6635 89.3116 56.0096 89.3116C55.3557 89.3116 54.8255 88.7815 54.8255 88.1275C54.8255 87.4736 55.3557 86.9435 56.0096 86.9435C56.6635 86.9435 57.1937 87.4736 57.1937 88.1275ZM81.3193 89.3116C81.9735 89.3116 82.5034 88.7815 82.5034 88.1275C82.5034 87.4736 81.9735 86.9435 81.3193 86.9435C80.6651 86.9435 80.1352 87.4736 80.1352 88.1275C80.1352 88.7815 80.6651 89.3116 81.3193 89.3116ZM36.3242 74.0666C36.3242 74.7205 35.794 75.2507 35.1401 75.2507C34.4862 75.2507 33.9561 74.7205 33.9561 74.0666C33.9561 73.4127 34.4862 72.8826 35.1401 72.8826C35.794 72.8826 36.3242 73.4127 36.3242 74.0666Z" fill="#E44155"/>
<path id="Vector_36" fill-rule="evenodd" clip-rule="evenodd" d="M63.0238 47.3086C63.6041 47.3086 64.0746 46.8378 64.0746 46.2568C64.0746 45.6759 63.6041 45.2051 63.0238 45.2051C62.4434 45.2051 61.9729 45.6759 61.9729 46.2568C61.9729 46.8378 62.4434 47.3086 63.0238 47.3086ZM71.0363 51.2528C71.6166 51.2528 72.0873 50.7818 72.0873 50.201C72.0873 49.6201 71.6166 49.1492 71.0363 49.1492C70.4559 49.1492 69.9856 49.6201 69.9856 50.201C69.9856 50.7818 70.4559 51.2528 71.0363 51.2528ZM56.0619 55.7226C56.6423 55.7226 57.1128 55.2518 57.1128 54.6709C57.1128 54.0901 56.6423 53.6191 56.0619 53.6191C55.4816 53.6191 55.0111 54.0901 55.0111 54.6709C55.0111 55.2518 55.4816 55.7226 56.0619 55.7226ZM54.3544 59.4038C54.9347 59.4038 55.4052 58.933 55.4052 58.352C55.4052 57.7712 54.9347 57.3003 54.3544 57.3003C53.774 57.3003 53.3035 57.7712 53.3035 58.352C53.3035 58.933 53.774 59.4038 54.3544 59.4038ZM67.3584 64.0053C67.3584 64.5862 66.888 65.057 66.3077 65.057C65.7272 65.057 65.2568 64.5862 65.2568 64.0053C65.2568 63.4245 65.7272 62.9535 66.3077 62.9535C66.888 62.9535 67.3584 63.4245 67.3584 64.0053ZM50.545 80.8334C51.1254 80.8334 51.5959 80.3625 51.5959 79.7816C51.5959 79.2008 51.1254 78.7299 50.545 78.7299C49.9647 78.7299 49.4943 79.2008 49.4943 79.7816C49.4943 80.3625 49.9647 80.8334 50.545 80.8334ZM65.2568 77.5467C65.2568 78.1276 64.7863 78.5984 64.2059 78.5984C63.6256 78.5984 63.155 78.1276 63.155 77.5467C63.155 76.9657 63.6256 76.4949 64.2059 76.4949C64.7863 76.4949 65.2568 76.9657 65.2568 77.5467ZM80.888 80.7019C81.4682 80.7019 81.9389 80.2311 81.9389 79.6502C81.9389 79.0694 81.4682 78.5984 80.888 78.5984C80.3078 78.5984 79.8371 79.0694 79.8371 79.6502C79.8371 80.2311 80.3078 80.7019 80.888 80.7019ZM89.1632 69.6585C89.1632 70.2393 88.6926 70.7102 88.1124 70.7102C87.5322 70.7102 87.0615 70.2393 87.0615 69.6585C87.0615 69.0776 87.5322 68.6067 88.1124 68.6067C88.6926 68.6067 89.1632 69.0776 89.1632 69.6585ZM58.4263 90.0363C58.4263 90.6173 57.9559 91.0881 57.3755 91.0881C56.7952 91.0881 56.3247 90.6173 56.3247 90.0363C56.3247 89.4554 56.7952 88.9846 57.3755 88.9846C57.9559 88.9846 58.4263 89.4554 58.4263 90.0363ZM79.8371 91.0881C80.4173 91.0881 80.888 90.6173 80.888 90.0363C80.888 89.4554 80.4173 88.9846 79.8371 88.9846C79.2569 88.9846 78.7863 89.4554 78.7863 90.0363C78.7863 90.6173 79.2569 91.0881 79.8371 91.0881ZM39.9053 77.5467C39.9053 78.1276 39.4349 78.5984 38.8546 78.5984C38.2742 78.5984 37.8037 78.1276 37.8037 77.5467C37.8037 76.9657 38.2742 76.4949 38.8546 76.4949C39.4349 76.4949 39.9053 76.9657 39.9053 77.5467Z" fill="#E47B59"/>
<path id="Vector_37" d="M58.7903 63.6493L56.1548 66.7507C52.1116 71.5088 44.9768 72.0883 40.2187 68.0451L37.1172 65.4096L39.7528 62.3081C43.796 57.5502 50.9308 56.9707 55.6889 61.0139L58.7903 63.6493Z" fill="url(#paint33_linear_570_7689)"/>
<path id="Vector_38" opacity="0.5" fill-rule="evenodd" clip-rule="evenodd" d="M37.4307 65.0413L58.6402 63.5225L58.7903 63.65L56.1547 66.7514C52.1115 71.5095 44.9767 72.089 40.2186 68.0458L37.1172 65.4102L37.4307 65.0413Z" fill="#529D6A"/>
<path id="Vector_39" d="M66.5622 91.3846L65.4196 87.4783C63.6666 81.4855 67.1035 75.2062 73.0967 73.4533L77.0027 72.3105L78.1454 76.217C79.8978 82.2097 76.461 88.4889 70.4685 90.2419L66.5622 91.3846Z" fill="url(#paint34_linear_570_7689)"/>
<path id="Vector_40" opacity="0.5" fill-rule="evenodd" clip-rule="evenodd" d="M77.1387 72.7753L66.7512 91.3293L66.5622 91.3846L65.4196 87.4783C63.6665 81.4855 67.1036 75.2062 73.0966 73.4533L77.0026 72.3105L77.1387 72.7753Z" fill="#529D6A"/>
<path id="Vector_41" d="M74.3315 43.6221L78.35 44.2677C84.5146 45.2582 88.7092 51.0588 87.719 57.2237L87.0737 61.2422L83.0552 60.5964C76.8891 59.6059 72.6945 53.8053 73.6862 47.6405L74.3315 43.6221Z" fill="url(#paint35_linear_570_7689)"/>
<path id="Vector_42" opacity="0.5" fill-rule="evenodd" clip-rule="evenodd" d="M86.5945 61.1654L74.3008 43.8164L74.3319 43.6221L78.3503 44.2677C84.515 45.2582 88.7096 51.0588 87.7194 57.2236L87.0726 61.242L86.5945 61.1654Z" fill="#529D6A"/>
</g>
</g>
<defs>
<radialGradient id="paint0_radial_570_7689" cx="0" cy="0" r="1" gradientUnits="userSpaceOnUse" gradientTransform="translate(65.9024 65.9024) rotate(84.2286) scale(85.7914 85.7917)">
<stop stop-color="#E8EDF3"/>
<stop offset="1" stop-color="#F8F9FA"/>
</radialGradient>
<linearGradient id="paint1_linear_570_7689" x1="66.4924" y1="29.0722" x2="66.4924" y2="110.297" gradientUnits="userSpaceOnUse">
<stop stop-color="#F1D8BB"/>
<stop offset="1" stop-color="#F2DEA5"/>
</linearGradient>
<linearGradient id="paint2_linear_570_7689" x1="66.4925" y1="23.7431" x2="66.4925" y2="104.968" gradientUnits="userSpaceOnUse">
<stop stop-color="#F1D8BB"/>
<stop offset="1" stop-color="#F2DEA5"/>
</linearGradient>
<linearGradient id="paint3_linear_570_7689" x1="60.5239" y1="68.1465" x2="60.5239" y2="103.468" gradientUnits="userSpaceOnUse">
<stop stop-color="#F1D8BB"/>
<stop offset="1" stop-color="#F2DEA5"/>
</linearGradient>
<linearGradient id="paint4_linear_570_7689" x1="39.3589" y1="22.708" x2="39.3589" y2="58.029" gradientUnits="userSpaceOnUse">
<stop stop-color="#F1D8BB"/>
<stop offset="1" stop-color="#F2DEA5"/>
</linearGradient>
<linearGradient id="paint5_linear_570_7689" x1="52.5317" y1="61.6338" x2="52.5317" y2="96.9548" gradientUnits="userSpaceOnUse">
<stop stop-color="#F1D8BB"/>
<stop offset="1" stop-color="#F2DEA5"/>
</linearGradient>
<linearGradient id="paint6_linear_570_7689" x1="69.9224" y1="18.2666" x2="69.9224" y2="62.7501" gradientUnits="userSpaceOnUse">
<stop stop-color="#F1D8BB"/>
<stop offset="1" stop-color="#F2DEA5"/>
</linearGradient>
<linearGradient id="paint7_linear_570_7689" x1="100.046" y1="52.6055" x2="100.046" y2="95.0538" gradientUnits="userSpaceOnUse">
<stop stop-color="#F1D8BB"/>
<stop offset="1" stop-color="#F2DEA5"/>
</linearGradient>
<linearGradient id="paint8_linear_570_7689" x1="84.3535" y1="63.5576" x2="84.3535" y2="98.9319" gradientUnits="userSpaceOnUse">
<stop stop-color="#F1D8BB"/>
<stop offset="1" stop-color="#F2DEA5"/>
</linearGradient>
<linearGradient id="paint9_linear_570_7689" x1="86.3932" y1="30.5518" x2="86.3932" y2="93.8215" gradientUnits="userSpaceOnUse">
<stop stop-color="#F1D8BB"/>
<stop offset="1" stop-color="#F2DEA5"/>
</linearGradient>
<linearGradient id="paint10_linear_570_7689" x1="68.6308" y1="26.1114" x2="68.6308" y2="89.381" gradientUnits="userSpaceOnUse">
<stop stop-color="#F1D8BB"/>
<stop offset="1" stop-color="#F2DEA5"/>
</linearGradient>
<linearGradient id="paint11_linear_570_7689" x1="43.0591" y1="65.9258" x2="43.0591" y2="101.247" gradientUnits="userSpaceOnUse">
<stop stop-color="#F1D8BB"/>
<stop offset="1" stop-color="#F2DEA5"/>
</linearGradient>
<linearGradient id="paint12_linear_570_7689" x1="83.9096" y1="52.0137" x2="83.9096" y2="87.3347" gradientUnits="userSpaceOnUse">
<stop stop-color="#F1D8BB"/>
<stop offset="1" stop-color="#F2DEA5"/>
</linearGradient>
<linearGradient id="paint13_linear_570_7689" x1="73.0722" y1="43.8721" x2="73.0722" y2="107.142" gradientUnits="userSpaceOnUse">
<stop stop-color="#F1D8BB"/>
<stop offset="1" stop-color="#F2DEA5"/>
</linearGradient>
<linearGradient id="paint14_linear_570_7689" x1="61.6517" y1="64.002" x2="61.6517" y2="100.945" gradientUnits="userSpaceOnUse">
<stop stop-color="#F1D8BB"/>
<stop offset="1" stop-color="#F2DEA5"/>
</linearGradient>
<linearGradient id="paint15_linear_570_7689" x1="66.8138" y1="29.5156" x2="66.8138" y2="73.9991" gradientUnits="userSpaceOnUse">
<stop stop-color="#F1D8BB"/>
<stop offset="1" stop-color="#F2DEA5"/>
</linearGradient>
<linearGradient id="paint16_linear_570_7689" x1="66.8138" y1="26.1113" x2="66.8138" y2="70.5949" gradientUnits="userSpaceOnUse">
<stop stop-color="#F1D8BB"/>
<stop offset="1" stop-color="#F2DEA5"/>
</linearGradient>
<linearGradient id="paint17_linear_570_7689" x1="41.0784" y1="50.2373" x2="41.0784" y2="87.1801" gradientUnits="userSpaceOnUse">
<stop stop-color="#F1D8BB"/>
<stop offset="1" stop-color="#F2DEA5"/>
</linearGradient>
<linearGradient id="paint18_linear_570_7689" x1="57.9748" y1="31.4405" x2="57.9748" y2="94.7101" gradientUnits="userSpaceOnUse">
<stop stop-color="#F1D8BB"/>
<stop offset="1" stop-color="#F2DEA5"/>
</linearGradient>
<linearGradient id="paint19_linear_570_7689" x1="45.0745" y1="57.6377" x2="45.0745" y2="94.5805" gradientUnits="userSpaceOnUse">
<stop stop-color="#F1D8BB"/>
<stop offset="1" stop-color="#F2DEA5"/>
</linearGradient>
<linearGradient id="paint20_linear_570_7689" x1="80.8927" y1="41.6524" x2="80.8927" y2="78.5951" gradientUnits="userSpaceOnUse">
<stop stop-color="#F1D8BB"/>
<stop offset="1" stop-color="#F2DEA5"/>
</linearGradient>
<linearGradient id="paint21_linear_570_7689" x1="86.9432" y1="30.9961" x2="86.9432" y2="91.6801" gradientUnits="userSpaceOnUse">
<stop stop-color="#F1D8BB"/>
<stop offset="1" stop-color="#F2DEA5"/>
</linearGradient>
<linearGradient id="paint22_linear_570_7689" x1="66.0052" y1="21.5234" x2="66.0052" y2="63.9717" gradientUnits="userSpaceOnUse">
<stop stop-color="#F1D8BB"/>
<stop offset="1" stop-color="#F2DEA5"/>
</linearGradient>
<linearGradient id="paint23_linear_570_7689" x1="43.9142" y1="26.8516" x2="43.9142" y2="90.1213" gradientUnits="userSpaceOnUse">
<stop stop-color="#F1D8BB"/>
<stop offset="1" stop-color="#F2DEA5"/>
</linearGradient>
<linearGradient id="paint24_linear_570_7689" x1="74.3378" y1="28.4795" x2="74.3378" y2="109.704" gradientUnits="userSpaceOnUse">
<stop stop-color="#F1D8BB"/>
<stop offset="1" stop-color="#F2DEA5"/>
</linearGradient>
<linearGradient id="paint25_linear_570_7689" x1="84.0576" y1="68.4414" x2="84.0576" y2="103.816" gradientUnits="userSpaceOnUse">
<stop stop-color="#F1D8BB"/>
<stop offset="1" stop-color="#F2DEA5"/>
</linearGradient>
<linearGradient id="paint26_linear_570_7689" x1="70.5558" y1="36.7676" x2="70.5558" y2="100.037" gradientUnits="userSpaceOnUse">
<stop stop-color="#F1D8BB"/>
<stop offset="1" stop-color="#F2DEA5"/>
</linearGradient>
<linearGradient id="paint27_linear_570_7689" x1="65.013" y1="30.5527" x2="65.013" y2="111.777" gradientUnits="userSpaceOnUse">
<stop stop-color="#F1D8BB"/>
<stop offset="1" stop-color="#F2DEA5"/>
</linearGradient>
<linearGradient id="paint28_linear_570_7689" x1="71.3747" y1="28.7754" x2="71.3747" y2="90.0468" gradientUnits="userSpaceOnUse">
<stop stop-color="#F1D8BB"/>
<stop offset="1" stop-color="#F2DEA5"/>
</linearGradient>
<linearGradient id="paint29_linear_570_7689" x1="49.4281" y1="43.4287" x2="49.4281" y2="85.877" gradientUnits="userSpaceOnUse">
<stop stop-color="#F1D8BB"/>
<stop offset="1" stop-color="#F2DEA5"/>
</linearGradient>
<linearGradient id="paint30_linear_570_7689" x1="50.4642" y1="66.666" x2="50.4642" y2="109.114" gradientUnits="userSpaceOnUse">
<stop stop-color="#F1D8BB"/>
<stop offset="1" stop-color="#F2DEA5"/>
</linearGradient>
<linearGradient id="paint31_linear_570_7689" x1="59.7832" y1="47.7207" x2="59.7832" y2="83.095" gradientUnits="userSpaceOnUse">
<stop stop-color="#F1D8BB"/>
<stop offset="1" stop-color="#F2DEA5"/>
</linearGradient>
<radialGradient id="paint32_radial_570_7689" cx="0" cy="0" r="1" gradientUnits="userSpaceOnUse" gradientTransform="translate(62.6694 67.2585) rotate(90.1868) scale(68.0847 66.6244)">
<stop stop-color="#F07261"/>
<stop offset="1" stop-color="#E62151"/>
</radialGradient>
<linearGradient id="paint33_linear_570_7689" x1="42.6907" y1="63.6507" x2="57.4035" y2="61.4921" gradientUnits="userSpaceOnUse">
<stop stop-color="#64B581"/>
<stop offset="1" stop-color="#8DE691"/>
</linearGradient>
<linearGradient id="paint34_linear_570_7689" x1="75.4087" y1="77.9336" x2="69.1267" y2="91.4115" gradientUnits="userSpaceOnUse">
<stop stop-color="#64B581"/>
<stop offset="1" stop-color="#8DE691"/>
</linearGradient>
<linearGradient id="paint35_linear_570_7689" x1="82.6793" y1="57.3882" x2="73.2052" y2="45.9264" gradientUnits="userSpaceOnUse">
<stop stop-color="#64B581"/>
<stop offset="1" stop-color="#8DE691"/>
</linearGradient>
</defs>
</svg>
